<?xml version="1.0" standalone="no"?><!DOCTYPE svg PUBLIC "-//W3C//DTD SVG 1.1//EN" "http://www.w3.org/Graphics/SVG/1.1/DTD/svg11.dtd"><svg t="1621659433178" class="icon" viewBox="0 0 1024 1024" version="1.1" xmlns="http://www.w3.org/2000/svg" p-id="4742" xmlns:xlink="http://www.w3.org/1999/xlink" width="200" height="200"><defs><style type="text/css"></style></defs><path d="M425.7 170.7h172.7c23 0 41.7-18.6 41.7-41.7s-18.7-41.7-41.7-41.7H425.7c-23 0-41.6 18.7-41.6 41.7s18.6 41.7 41.6 41.7z" fill="#e6e6e6" p-id="4743"></path><path d="M810.7 172.7H671.5c-0.7 0-1.3 0.4-1.7 0.9-14.9 23.8-41.3 39.7-71.4 39.7H425.7c-30.1 0-56.5-15.9-71.4-39.7-0.4-0.6-1-0.9-1.7-0.9H213.4c-23.6 0-42.7 19.1-42.7 42.7V898c0 23.6 19.1 42.7 42.7 42.7h597.3c23.6 0 42.7-19.1 42.7-42.7V215.4c0-23.6-19.1-42.7-42.7-42.7zM384 301.9c23.6 0 42.7 19.1 42.7 42.7s-19.1 42.7-42.7 42.7-42.7-19.1-42.7-42.7 19.2-42.7 42.7-42.7z m0 128c23.6 0 42.7 19.1 42.7 42.7s-19.1 42.7-42.7 42.7-42.7-19.1-42.7-42.7 19.2-42.7 42.7-42.7zM662.9 662L512 812.8c-8.3 8.3-19.2 12.5-30.2 12.5s-21.8-4.2-30.2-12.5l-90.5-90.5c-16.7-16.7-16.7-43.7 0-60.3 8.3-8.3 19.2-12.5 30.2-12.5s21.8 4.2 30.2 12.5l58.9 58.9c0.8 0.8 2 0.8 2.8 0l119.3-119.3c8.3-8.3 19.2-12.5 30.2-12.5s21.8 4.2 30.2 12.5c16.6 16.7 16.6 43.7 0 60.4zM640 515.2H512c-23.6 0-42.7-19.1-42.7-42.7s19.1-42.7 42.7-42.7h128c23.6 0 42.7 19.1 42.7 42.7s-19.1 42.7-42.7 42.7z m0-128H512c-23.6 0-42.7-19.1-42.7-42.7s19.1-42.7 42.7-42.7h128c23.6 0 42.7 19.1 42.7 42.7s-19.1 42.7-42.7 42.7z" fill="#e6e6e6" p-id="4744"></path></svg>